<svg width="838" height="421" viewBox="0 0 838 421" fill="none" xmlns="http://www.w3.org/2000/svg">
<path d="M71.5713 209.16C66.8246 209.16 62.3713 208.84 58.2113 208.2C54.1046 207.613 50.3446 206.84 46.9313 205.88C43.5713 204.867 40.6113 203.827 38.0513 202.76L35.8913 179.72C40.1046 181.693 45.0913 183.533 50.8513 185.24C56.6113 186.893 62.7179 187.72 69.1713 187.72C75.4113 187.72 79.8379 186.947 82.4513 185.4C85.1179 183.8 86.4513 181.32 86.4513 177.96V177.4C86.4513 175.16 85.8379 173.347 84.6113 171.96C83.4379 170.52 81.4379 169.213 78.6113 168.04C75.8379 166.813 72.0779 165.507 67.3313 164.12C60.1846 161.987 54.2113 159.613 49.4113 157C44.6646 154.387 41.1179 151.133 38.7713 147.24C36.4246 143.293 35.2513 138.307 35.2513 132.28V131.24C35.2513 121.96 38.3979 114.867 44.6913 109.96C51.0379 105.053 60.3446 102.6 72.6113 102.6C79.9713 102.6 86.3179 103.24 91.6513 104.52C97.0379 105.8 101.598 107.32 105.331 109.08L107.491 130.52C103.385 128.547 98.7179 126.893 93.4913 125.56C88.3179 124.173 82.7713 123.48 76.8513 123.48C72.6913 123.48 69.4113 123.827 67.0113 124.52C64.6646 125.213 63.0113 126.227 62.0513 127.56C61.0913 128.84 60.6113 130.413 60.6113 132.28V132.6C60.6113 134.52 61.1446 136.2 62.2113 137.64C63.3313 139.08 65.3046 140.467 68.1313 141.8C71.0113 143.133 75.0913 144.573 80.3713 146.12C87.4646 148.2 93.3313 150.44 97.9713 152.84C102.665 155.187 106.158 158.253 108.451 162.04C110.798 165.773 111.971 170.76 111.971 177V178.28C111.971 188.573 108.638 196.307 101.971 201.48C95.3046 206.6 85.1713 209.16 71.5713 209.16ZM167.269 209.48C152.389 209.48 141.215 205.747 133.749 198.28C126.335 190.813 122.629 180.067 122.629 166.04V146.6C122.629 132.52 126.362 121.667 133.829 114.04C141.349 106.36 152.495 102.52 167.269 102.52C182.042 102.52 193.162 106.36 200.629 114.04C208.149 121.667 211.909 132.52 211.909 146.6V166.04C211.909 180.067 208.175 190.813 200.709 198.28C193.242 205.747 182.095 209.48 167.269 209.48ZM167.269 188.84C173.722 188.84 178.522 186.947 181.669 183.16C184.815 179.373 186.389 174.067 186.389 167.24V145.32C186.389 138.173 184.815 132.68 181.669 128.84C178.522 125 173.722 123.08 167.269 123.08C160.815 123.08 156.015 125 152.869 128.84C149.722 132.68 148.149 138.173 148.149 145.32V167.24C148.149 174.067 149.722 179.373 152.869 183.16C156.015 186.947 160.815 188.84 167.269 188.84ZM227.311 207V104.76H252.191V207H227.311ZM241.631 171.4V150.36H294.671V171.4H241.631ZM234.511 125.8V104.76H295.871V125.8H234.511ZM333.713 207V109.56H358.753V207H333.713ZM305.473 125.64V104.76H386.913V125.64H305.473ZM412.509 207L394.509 104.76H419.949L429.629 174.92L431.309 186.12H432.669L434.509 174.92L444.989 107.08H475.629L486.029 174.92L487.789 186.12H489.229L490.989 174.92L500.829 104.76H525.949L508.189 207H472.589L463.709 145.64L460.909 127.64H459.629L456.829 145.64L448.109 207H412.509ZM524.403 207L553.683 104.76H591.283L620.403 207H595.123L573.443 121.24H571.603L549.683 207H524.403ZM549.283 182.92V163.48H595.363V182.92H549.283ZM688.97 207L686.97 187.72C686.65 184.307 685.983 181.533 684.97 179.4C683.957 177.213 682.41 175.613 680.33 174.6C678.25 173.533 675.477 173 672.01 173L648.89 172.92V153.8L672.97 153.72C678.197 153.72 681.957 152.573 684.25 150.28C686.543 147.987 687.69 144.547 687.69 139.96V138.36C687.69 133.827 686.543 130.44 684.25 128.2C682.01 125.907 678.223 124.76 672.89 124.76H648.73V104.76H676.49C689.023 104.76 698.17 107.187 703.93 112.04C709.743 116.893 712.65 123.88 712.65 133V135.08C712.65 141.96 710.89 147.32 707.37 151.16C703.85 155 698.49 157.187 691.29 157.72V161.24L686.17 157.8C692.357 158.227 697.157 159.507 700.57 161.64C703.983 163.773 706.49 166.76 708.09 170.6C709.743 174.387 710.943 179.107 711.69 184.76L714.65 207H688.97ZM631.53 207V104.76H655.85V160.68L656.01 169.96V207H631.53ZM728.405 207V104.76H752.885V207H728.405ZM735.685 207V186.12H800.005V207H735.685ZM742.725 165.16V145.08H798.085V165.16H742.725ZM735.605 125.4V104.76H799.285V125.4H735.605ZM30.6906 323V302.04H53.0106C59.4106 302.04 64.2106 300.307 67.4106 296.84C70.6106 293.373 72.2106 288.413 72.2106 281.96V261.48C72.2106 255.027 70.6106 250.093 67.4106 246.68C64.2106 243.213 59.4106 241.48 53.0106 241.48H30.6106V220.76H53.8906C68.4506 220.76 79.3306 224.28 86.5306 231.32C93.784 238.307 97.4106 248.36 97.4106 261.48V282.04C97.4106 295.213 93.8106 305.347 86.6106 312.44C79.4106 319.48 68.504 323 53.8906 323H30.6906ZM13.1706 323V220.76H37.8106V323H13.1706ZM112.702 323V220.76H137.182V323H112.702ZM119.982 323V302.12H184.302V323H119.982ZM127.022 281.16V261.08H182.382V281.16H127.022ZM119.902 241.4V220.76H183.582V241.4H119.902ZM220.137 323L192.137 220.76H218.057L238.137 304.36H239.977L260.137 220.76H285.977L258.057 323H220.137ZM297.077 323V220.76H321.557V323H297.077ZM304.357 323V302.12H368.677V323H304.357ZM311.397 281.16V261.08H366.757V281.16H311.397ZM304.277 241.4V220.76H367.957V241.4H304.277ZM409.461 323H384.421V220.76H409.461V323ZM398.661 301.96H452.101V323H398.661V301.96ZM503.597 325.48C488.717 325.48 477.544 321.747 470.077 314.28C462.664 306.813 458.957 296.067 458.957 282.04V262.6C458.957 248.52 462.69 237.667 470.157 230.04C477.677 222.36 488.824 218.52 503.597 218.52C518.37 218.52 529.49 222.36 536.957 230.04C544.477 237.667 548.237 248.52 548.237 262.6V282.04C548.237 296.067 544.504 306.813 537.037 314.28C529.57 321.747 518.424 325.48 503.597 325.48ZM503.597 304.84C510.05 304.84 514.85 302.947 517.997 299.16C521.144 295.373 522.717 290.067 522.717 283.24V261.32C522.717 254.173 521.144 248.68 517.997 244.84C514.85 241 510.05 239.08 503.597 239.08C497.144 239.08 492.344 241 489.197 244.84C486.05 248.68 484.477 254.173 484.477 261.32V283.24C484.477 290.067 486.05 295.373 489.197 299.16C492.344 302.947 497.144 304.84 503.597 304.84ZM580.439 293.96V273.72H604.679C609.906 273.72 613.666 272.573 615.959 270.28C618.306 267.933 619.479 264.44 619.479 259.8V254.84C619.479 250.147 618.333 246.653 616.039 244.36C613.746 242.067 609.986 240.92 604.759 240.92H580.359V220.76H606.599C619.613 220.76 629.133 223.64 635.159 229.4C641.239 235.16 644.279 243.4 644.279 254.12V260.6C644.279 271.373 641.239 279.64 635.159 285.4C629.133 291.107 619.639 293.96 606.679 293.96H580.439ZM563.639 323V220.76H588.119V279.4L588.279 290.76V323H563.639ZM658.171 323V220.76H682.651V323H658.171ZM665.451 323V302.12H729.771V323H665.451ZM672.491 281.16V261.08H727.851V281.16H672.491ZM665.371 241.4V220.76H729.051V241.4H665.371ZM802.954 323L800.954 303.72C800.634 300.307 799.968 297.533 798.954 295.4C797.941 293.213 796.394 291.613 794.314 290.6C792.234 289.533 789.461 289 785.994 289L762.874 288.92V269.8L786.954 269.72C792.181 269.72 795.941 268.573 798.234 266.28C800.528 263.987 801.674 260.547 801.674 255.96V254.36C801.674 249.827 800.528 246.44 798.234 244.2C795.994 241.907 792.208 240.76 786.874 240.76H762.714V220.76H790.474C803.008 220.76 812.154 223.187 817.914 228.04C823.728 232.893 826.634 239.88 826.634 249V251.08C826.634 257.96 824.874 263.32 821.354 267.16C817.834 271 812.474 273.187 805.274 273.72V277.24L800.154 273.8C806.341 274.227 811.141 275.507 814.554 277.64C817.968 279.773 820.474 282.76 822.074 286.6C823.728 290.387 824.928 295.107 825.674 300.76L828.634 323H802.954ZM745.514 323V220.76H769.834V276.68L769.994 285.96V323H745.514Z" fill="url(#paint0_linear_616_15)"/>
<path d="M7.77 75.84C7.07 75.4667 6.53333 74.9533 6.16 74.3C5.78667 73.6467 5.6 72.6433 5.6 71.29C5.6 70.31 5.85667 69.2833 6.37 68.21C6.93 67.09 7.56 66.0167 8.26 64.99C9.00667 63.9167 9.63667 62.96 10.15 62.12C12.3433 58.5267 14.56 54.91 16.8 51.27C19.04 47.63 20.7667 44.2467 21.98 41.12C20.72 41.3067 19.2967 41.4933 17.71 41.68C16.1233 41.82 14.5133 41.89 12.88 41.89C10.9667 41.89 9.73 41.54 9.17 40.84C8.65667 40.0933 8.4 39.3 8.4 38.46C8.82 38.6 9.38 38.6933 10.08 38.74C10.8267 38.7867 11.7133 38.81 12.74 38.81C13.8133 38.81 15.0267 38.7867 16.38 38.74C17.78 38.6933 19.2733 38.6233 20.86 38.53C21.0933 38.53 21.3733 38.53 21.7 38.53C22.0733 38.4833 22.4467 38.4367 22.82 38.39C22.96 38.1567 23.03 37.8767 23.03 37.55C23.4033 37.55 23.7067 37.62 23.94 37.76C24.1733 37.9 24.3833 38.0867 24.57 38.32C26.1567 38.1333 27.7667 37.97 29.4 37.83C31.08 37.69 32.3633 37.62 33.25 37.62C34.4167 37.62 35.2333 37.83 35.7 38.25C36.2133 38.67 36.5167 39.1833 36.61 39.79C36.75 40.3967 36.82 41.0033 36.82 41.61C36.54 41.3767 35.77 41.1433 34.51 40.91C33.25 40.6767 31.43 40.56 29.05 40.56C28.4433 40.56 27.8133 40.5833 27.16 40.63C26.5067 40.63 25.8067 40.6533 25.06 40.7V41.75C25.06 42.4967 24.7333 43.6167 24.08 45.11C23.4267 46.5567 22.61 48.1667 21.63 49.94C20.6967 51.6667 19.7633 53.3233 18.83 54.91C17.8967 56.45 17.15 57.6633 16.59 58.55C15.7033 59.8567 14.77 61.3733 13.79 63.1C12.8567 64.78 11.97 66.4367 11.13 68.07C10.2433 69.75 9.47333 71.3133 8.82 72.76C8.21333 74.16 7.86333 75.1867 7.77 75.84ZM19.4365 75.35C21.7698 69.5167 24.1265 64.1267 26.5065 59.18C28.9332 54.2333 31.2198 49.8 33.3665 45.88C34.9532 42.94 36.4698 40.7233 37.9165 39.23C39.4098 37.7367 40.7632 36.7333 41.9765 36.22C43.1898 35.7067 44.1932 35.4733 44.9865 35.52C43.8665 36.7333 42.5832 38.4367 41.1365 40.63C39.6898 42.7767 38.1732 45.25 36.5865 48.05C34.9998 50.85 33.4132 53.8133 31.8265 56.94C30.2398 60.02 28.7465 63.1 27.3465 66.18C27.7665 65.62 28.3732 64.8267 29.1665 63.8C30.0065 62.7267 30.9632 61.56 32.0365 60.3C33.1098 59.04 34.2065 57.85 35.3265 56.73C36.4932 55.5633 37.6365 54.63 38.7565 53.93C39.8765 53.1833 40.8798 52.81 41.7665 52.81C42.7932 52.81 43.4698 53.0667 43.7965 53.58C44.1698 54.0467 44.3565 54.6067 44.3565 55.26C44.3565 56.1467 44.0532 57.1967 43.4465 58.41C42.8865 59.6233 42.1865 60.86 41.3465 62.12C40.5065 63.38 39.6665 64.5933 38.8265 65.76C38.0332 66.9267 37.4032 67.9533 36.9365 68.84C36.2832 70.1467 35.9565 71.1733 35.9565 71.92C35.9565 72.62 36.2598 72.97 36.8665 72.97C37.0532 72.97 37.2865 72.9233 37.5665 72.83C37.8932 72.7367 38.2198 72.5967 38.5465 72.41C39.5732 71.8967 40.5998 71.15 41.6265 70.17C42.6532 69.19 43.6332 68.1867 44.5665 67.16C45.0332 66.6467 45.4765 66.1567 45.8965 65.69C46.3165 65.2233 46.7132 64.7333 47.0865 64.22C47.2265 64.08 47.3432 64.01 47.4365 64.01C47.7165 64.01 47.8565 64.22 47.8565 64.64C47.8565 64.8733 47.7632 65.0833 47.5765 65.27C46.5965 66.4833 45.5698 67.72 44.4965 68.98C43.9365 69.5867 43.3765 70.1933 42.8165 70.8C42.3032 71.36 41.7898 71.8967 41.2765 72.41C39.2698 74.2767 37.3798 75.21 35.6065 75.21C34.6732 75.21 33.9732 74.93 33.5065 74.37C33.0865 73.7633 32.8765 73.0167 32.8765 72.13C32.8765 70.9167 33.1798 69.5167 33.7865 67.93C34.4398 66.2967 35.2332 64.7567 36.1665 63.31C36.2598 63.17 36.5398 62.7267 37.0065 61.98C37.5198 61.2333 38.0798 60.37 38.6865 59.39C39.2932 58.3633 39.8298 57.43 40.2965 56.59C40.7632 55.7033 40.9965 55.0733 40.9965 54.7C40.9965 54.3733 40.8098 54.28 40.4365 54.42C40.0632 54.56 39.4098 55.0267 38.4765 55.82C37.4965 56.66 36.3998 57.7333 35.1865 59.04C33.9732 60.3467 32.7132 61.77 31.4065 63.31C30.0998 64.8033 28.8632 66.32 27.6965 67.86C26.5765 69.4 25.5965 70.8233 24.7565 72.13L24.3365 73.32C24.0565 74.0667 23.6365 74.5567 23.0765 74.79C22.5632 74.9767 22.0032 75.07 21.3965 75.07C20.7432 75.07 20.0898 75.1633 19.4365 75.35ZM51.432 76.05C49.7053 76.05 48.3286 75.56 47.302 74.58C46.2753 73.5533 45.762 72.13 45.762 70.31C45.762 68.91 46.0186 67.44 46.532 65.9C47.092 64.36 47.6286 63.1467 48.142 62.26C49.2153 60.3 50.4986 58.5033 51.992 56.87C53.532 55.2367 55.0953 53.93 56.682 52.95C58.3153 51.9233 59.8086 51.41 61.162 51.41C62.422 51.41 63.4953 51.76 64.382 52.46C65.3153 53.16 65.782 54.0933 65.782 55.26C65.782 55.7267 65.6653 56.2633 65.432 56.87C65.1986 57.4767 64.8253 58.1067 64.312 58.76C62.4453 61.14 60.3686 63.0067 58.082 64.36C55.842 65.6667 53.2753 66.6467 50.382 67.3C50.1953 67.9067 50.032 68.5133 49.892 69.12C49.752 69.68 49.6353 70.2167 49.542 70.73C49.4953 70.9633 49.4486 71.1967 49.402 71.43C49.402 71.6167 49.402 71.8267 49.402 72.06C49.402 72.9933 49.612 73.67 50.032 74.09C50.4986 74.4633 51.0586 74.65 51.712 74.65C52.7386 74.65 53.8353 74.3933 55.002 73.88C56.1686 73.32 57.2653 72.69 58.292 71.99C59.3186 71.29 60.0886 70.73 60.602 70.31C61.1153 69.8433 61.6053 69.3767 62.072 68.91C62.5853 68.3967 63.1453 67.8367 63.752 67.23C64.2186 66.7167 64.662 66.2267 65.082 65.76C65.502 65.2467 65.8986 64.7333 66.272 64.22C66.412 64.08 66.5286 64.01 66.622 64.01C66.902 64.01 67.042 64.22 67.042 64.64C67.042 64.8733 66.9486 65.0833 66.762 65.27C65.922 66.2967 65.082 67.3233 64.242 68.35C63.402 69.33 62.5386 70.2867 61.652 71.22C60.6253 72.2933 59.202 73.3667 57.382 74.44C55.6086 75.5133 53.6253 76.05 51.432 76.05ZM50.802 66.39C52.0153 65.8767 53.4153 65.13 55.002 64.15C56.6353 63.17 58.1986 62.0033 59.692 60.65C61.232 59.25 62.492 57.7567 63.472 56.17C63.7986 55.6567 63.962 55.19 63.962 54.77C63.962 54.1167 63.5886 53.79 62.842 53.79C62.3286 53.79 61.6986 53.9767 60.952 54.35C58.6186 55.61 56.612 57.3133 54.932 59.46C53.252 61.6067 51.8753 63.9167 50.802 66.39Z" fill="url(#paint1_linear_616_15)"/>
<path d="M633.8 406.1C632.493 406.1 631.49 405.75 630.79 405.05C630.043 404.35 629.67 403.347 629.67 402.04C629.67 400.173 630.207 398.4 631.28 396.72C632.353 395.04 633.73 393.477 635.41 392.03C637.043 390.63 638.747 389.347 640.52 388.18C642.293 387.013 643.903 386.01 645.35 385.17C646.797 384.33 647.823 383.677 648.43 383.21C649.597 381.11 650.693 378.963 651.72 376.77C652.747 374.53 653.657 372.313 654.45 370.12C653.237 372.267 651.907 374.32 650.46 376.28C649.06 378.24 647.637 379.85 646.19 381.11C644.79 382.37 643.437 383 642.13 383C640.777 383 639.867 382.557 639.4 381.67C638.933 380.737 638.7 379.733 638.7 378.66C638.7 377.82 638.77 377.003 638.91 376.21C639.097 375.417 639.26 374.833 639.4 374.46C639.82 373.247 640.357 371.917 641.01 370.47C641.663 368.977 642.317 367.53 642.97 366.13C643.67 364.683 644.277 363.423 644.79 362.35C645.163 361.557 645.863 360.88 646.89 360.32C647.917 359.713 648.757 359.41 649.41 359.41C650.11 359.41 650.46 359.667 650.46 360.18C650.46 360.553 650.25 361.09 649.83 361.79C649.457 362.443 648.897 363.47 648.15 364.87C647.403 366.27 646.587 367.81 645.7 369.49C644.86 371.17 644.09 372.78 643.39 374.32C642.55 376.14 642.13 377.773 642.13 379.22C642.13 379.827 642.223 380.317 642.41 380.69C642.597 381.063 642.9 381.25 643.32 381.25C643.693 381.25 644.183 381.04 644.79 380.62C645.397 380.2 646.097 379.5 646.89 378.52C647.31 378.053 647.94 377.26 648.78 376.14C649.667 375.02 650.623 373.713 651.65 372.22C652.677 370.68 653.657 369.07 654.59 367.39C655.523 365.663 656.27 364.007 656.83 362.42L657.25 360.88C657.623 360.553 657.997 360.39 658.37 360.39C658.883 360.39 659.327 360.623 659.7 361.09C660.073 361.557 660.283 361.837 660.33 361.93C659.583 364.637 658.65 367.53 657.53 370.61C656.41 373.69 654.963 377.143 653.19 380.97C654.963 379.85 656.457 378.777 657.67 377.75C658.883 376.677 659.77 375.837 660.33 375.23C660.797 374.717 661.24 374.203 661.66 373.69C662.127 373.177 662.547 372.663 662.92 372.15C663.06 372.01 663.177 371.94 663.27 371.94C663.55 371.94 663.69 372.15 663.69 372.57C663.69 372.85 663.597 373.083 663.41 373.27C662.897 373.877 662.383 374.507 661.87 375.16C661.403 375.767 660.89 376.397 660.33 377.05C659.397 378.077 658.137 379.197 656.55 380.41C655.01 381.577 653.493 382.58 652 383.42C650.833 386.173 649.597 388.88 648.29 391.54C647.03 394.247 645.677 396.697 644.23 398.89C642.783 401.083 641.197 402.833 639.47 404.14C637.743 405.447 635.853 406.1 633.8 406.1ZM633.52 404.63C634.733 404.63 635.947 404.14 637.16 403.16C638.327 402.18 639.447 400.897 640.52 399.31C641.593 397.77 642.597 396.113 643.53 394.34C644.463 392.567 645.28 390.863 645.98 389.23C646.727 387.597 647.333 386.243 647.8 385.17C647.007 385.683 645.933 386.407 644.58 387.34C643.227 388.32 641.78 389.417 640.24 390.63C638.7 391.843 637.253 393.127 635.9 394.48C634.5 395.833 633.38 397.163 632.54 398.47C631.653 399.823 631.21 401.06 631.21 402.18C631.21 402.74 631.373 403.277 631.7 403.79C632.027 404.35 632.633 404.63 633.52 404.63ZM666.514 383.49C664.787 383.49 663.48 382.93 662.594 381.81C661.754 380.69 661.334 379.267 661.334 377.54C661.334 375.58 661.847 373.433 662.874 371.1C663.807 369 664.997 367.087 666.444 365.36C667.937 363.633 669.547 362.257 671.274 361.23C673 360.157 674.657 359.62 676.244 359.62C678.157 359.62 679.557 360.203 680.444 361.37C681.33 362.537 681.774 364.007 681.774 365.78C681.774 367.693 681.284 369.747 680.304 371.94C679.79 373.06 679.044 374.273 678.064 375.58C677.084 376.887 675.964 378.147 674.704 379.36C673.444 380.573 672.09 381.577 670.644 382.37C669.244 383.117 667.867 383.49 666.514 383.49ZM667.844 382.09C668.824 382.09 669.804 381.763 670.784 381.11C671.764 380.41 672.697 379.57 673.584 378.59C674.47 377.61 675.24 376.63 675.894 375.65C676.594 374.623 677.107 373.76 677.434 373.06C678.227 371.567 678.81 370.143 679.184 368.79C679.557 367.39 679.744 366.177 679.744 365.15C679.744 362.91 678.904 361.79 677.224 361.79C676.197 361.79 675.1 362.21 673.934 363.05C672.814 363.843 671.717 364.917 670.644 366.27C669.57 367.623 668.637 369.14 667.844 370.82C666.164 374.18 665.324 376.91 665.324 379.01C665.324 380.69 665.86 381.67 666.934 381.95C667.074 381.997 667.214 382.043 667.354 382.09C667.494 382.09 667.657 382.09 667.844 382.09ZM696.39 383.21C694.803 383.21 694.01 382.23 694.01 380.27C694.01 379.337 694.173 378.263 694.5 377.05C694.827 375.79 695.27 374.437 695.83 372.99C694.85 374.53 693.753 376.07 692.54 377.61C691.373 379.15 690.16 380.433 688.9 381.46C687.687 382.44 686.497 382.93 685.33 382.93C684.023 382.93 683.137 382.51 682.67 381.67C682.25 380.783 682.04 379.827 682.04 378.8C682.04 377.913 682.133 377.073 682.32 376.28C682.507 375.44 682.693 374.833 682.88 374.46C683.58 372.687 684.443 370.727 685.47 368.58C686.543 366.433 687.5 364.567 688.34 362.98C688.807 362.187 689.553 361.51 690.58 360.95C691.653 360.39 692.517 360.11 693.17 360.11C693.87 360.11 694.22 360.343 694.22 360.81C694.22 361.183 693.987 361.743 693.52 362.49C693.1 363.097 692.517 364.053 691.77 365.36C691.023 366.62 690.207 368.043 689.32 369.63C688.48 371.217 687.663 372.78 686.87 374.32C685.843 376.28 685.33 377.983 685.33 379.43C685.33 380.597 685.68 381.18 686.38 381.18C686.753 381.18 687.243 380.97 687.85 380.55C688.457 380.13 689.18 379.453 690.02 378.52C690.393 378.147 690.953 377.4 691.7 376.28C692.493 375.16 693.38 373.9 694.36 372.5C695.34 371.053 696.297 369.653 697.23 368.3C698.163 366.9 698.933 365.757 699.54 364.87C700.66 362.723 701.85 361.277 703.11 360.53C704.37 359.783 705.863 359.41 707.59 359.41C707.123 359.643 706.563 360.25 705.91 361.23C705.257 362.21 704.58 363.213 703.88 364.24C703.413 364.94 702.9 365.85 702.34 366.97C701.78 368.09 701.22 369.28 700.66 370.54C700.1 371.753 699.61 372.897 699.19 373.97C698.817 375.043 698.56 375.883 698.42 376.49C698.187 377.517 698.07 378.333 698.07 378.94C698.07 380.06 698.35 380.62 698.91 380.62C699.097 380.62 699.33 380.55 699.61 380.41C700.637 379.897 701.663 379.15 702.69 378.17C703.717 377.19 704.697 376.187 705.63 375.16C706.097 374.647 706.54 374.157 706.96 373.69C707.38 373.223 707.777 372.733 708.15 372.22C708.29 372.08 708.407 372.01 708.5 372.01C708.78 372.01 708.92 372.197 708.92 372.57C708.92 372.85 708.827 373.083 708.64 373.27C707.66 374.483 706.633 375.72 705.56 376.98C704.533 378.147 703.46 379.29 702.34 380.41C701.407 381.297 700.38 381.997 699.26 382.51C698.14 382.977 697.183 383.21 696.39 383.21ZM715.402 383.42C717.409 379.687 719.065 376.093 720.372 372.64C721.725 369.14 723.265 365.617 724.992 362.07C725.505 361.137 726.159 360.507 726.952 360.18C727.745 359.807 728.515 359.62 729.262 359.62C729.869 359.62 730.405 359.69 730.872 359.83C730.732 360.157 730.359 360.81 729.752 361.79C729.192 362.723 728.585 363.797 727.932 365.01C727.465 365.85 726.765 367.157 725.832 368.93C724.899 370.657 724.035 372.453 723.242 374.32C723.662 373.807 724.315 372.967 725.202 371.8C726.089 370.633 727.115 369.373 728.282 368.02C729.449 366.62 730.662 365.29 731.922 364.03C733.229 362.723 734.489 361.673 735.702 360.88C736.962 360.04 738.082 359.62 739.062 359.62C739.809 359.62 740.462 359.853 741.022 360.32C741.582 360.787 741.862 361.417 741.862 362.21C741.862 363.377 741.372 364.753 740.392 366.34C739.412 367.88 738.432 369.397 737.452 370.89C737.265 371.17 736.915 371.707 736.402 372.5C735.935 373.293 735.422 374.203 734.862 375.23C734.302 376.21 733.812 377.167 733.392 378.1C733.019 378.987 732.832 379.687 732.832 380.2C732.832 380.713 733.042 380.97 733.462 380.97C734.349 380.97 735.259 380.62 736.192 379.92C737.172 379.22 738.105 378.427 738.992 377.54C739.879 376.607 740.579 375.837 741.092 375.23C741.605 374.67 742.072 374.133 742.492 373.62C742.912 373.107 743.332 372.617 743.752 372.15C743.892 372.01 744.009 371.94 744.102 371.94C744.382 371.94 744.522 372.15 744.522 372.57C744.522 372.85 744.429 373.083 744.242 373.27C743.729 373.877 743.215 374.507 742.702 375.16C742.189 375.767 741.652 376.373 741.092 376.98C740.579 377.587 740.042 378.193 739.482 378.8C738.969 379.36 738.432 379.897 737.872 380.41C735.865 382.277 733.999 383.21 732.272 383.21C731.105 383.21 730.312 382.86 729.892 382.16C729.519 381.46 729.332 380.597 729.332 379.57C729.332 378.45 729.635 377.237 730.242 375.93C730.849 374.623 731.595 373.293 732.482 371.94C733.369 370.54 734.255 369.187 735.142 367.88C736.075 366.573 736.845 365.383 737.452 364.31C738.059 363.19 738.362 362.257 738.362 361.51C738.362 361.23 738.199 361.09 737.872 361.09C737.592 361.09 737.032 361.44 736.192 362.14C735.399 362.793 734.535 363.587 733.602 364.52C732.669 365.407 731.782 366.27 730.942 367.11C730.149 367.95 729.612 368.557 729.332 368.93C728.165 370.19 727.022 371.543 725.902 372.99C724.829 374.437 723.802 375.837 722.822 377.19C722.262 377.983 721.772 378.8 721.352 379.64C720.932 380.433 720.465 381.273 719.952 382.16C719.719 382.58 719.392 382.837 718.972 382.93C718.599 382.977 718.085 383.023 717.432 383.07C716.965 383.07 716.592 383.07 716.312 383.07C716.032 383.117 715.729 383.233 715.402 383.42ZM747.879 384.05C746.153 384.05 744.776 383.56 743.749 382.58C742.723 381.553 742.209 380.13 742.209 378.31C742.209 376.91 742.466 375.44 742.979 373.9C743.539 372.36 744.076 371.147 744.589 370.26C745.663 368.3 746.946 366.503 748.439 364.87C749.979 363.237 751.543 361.93 753.129 360.95C754.763 359.923 756.256 359.41 757.609 359.41C758.869 359.41 759.943 359.76 760.829 360.46C761.763 361.16 762.229 362.093 762.229 363.26C762.229 363.727 762.113 364.263 761.879 364.87C761.646 365.477 761.273 366.107 760.759 366.76C758.893 369.14 756.816 371.007 754.529 372.36C752.289 373.667 749.723 374.647 746.829 375.3C746.643 375.907 746.479 376.513 746.339 377.12C746.199 377.68 746.083 378.217 745.989 378.73C745.943 378.963 745.896 379.197 745.849 379.43C745.849 379.617 745.849 379.827 745.849 380.06C745.849 380.993 746.059 381.67 746.479 382.09C746.946 382.463 747.506 382.65 748.159 382.65C749.186 382.65 750.283 382.393 751.449 381.88C752.616 381.32 753.713 380.69 754.739 379.99C755.766 379.29 756.536 378.73 757.049 378.31C757.563 377.843 758.053 377.377 758.519 376.91C759.033 376.397 759.593 375.837 760.199 375.23C760.666 374.717 761.109 374.227 761.529 373.76C761.949 373.247 762.346 372.733 762.719 372.22C762.859 372.08 762.976 372.01 763.069 372.01C763.349 372.01 763.489 372.22 763.489 372.64C763.489 372.873 763.396 373.083 763.209 373.27C762.369 374.297 761.529 375.323 760.689 376.35C759.849 377.33 758.986 378.287 758.099 379.22C757.073 380.293 755.649 381.367 753.829 382.44C752.056 383.513 750.073 384.05 747.879 384.05ZM747.249 374.39C748.463 373.877 749.863 373.13 751.449 372.15C753.083 371.17 754.646 370.003 756.139 368.65C757.679 367.25 758.939 365.757 759.919 364.17C760.246 363.657 760.409 363.19 760.409 362.77C760.409 362.117 760.036 361.79 759.289 361.79C758.776 361.79 758.146 361.977 757.399 362.35C755.066 363.61 753.059 365.313 751.379 367.46C749.699 369.607 748.323 371.917 747.249 374.39ZM766.951 384.05C765.225 384.05 763.848 383.56 762.821 382.58C761.795 381.553 761.281 380.13 761.281 378.31C761.281 376.91 761.538 375.44 762.051 373.9C762.611 372.36 763.148 371.147 763.661 370.26C764.735 368.3 766.018 366.503 767.511 364.87C769.051 363.237 770.615 361.93 772.201 360.95C773.835 359.923 775.328 359.41 776.681 359.41C777.941 359.41 779.015 359.76 779.901 360.46C780.835 361.16 781.301 362.093 781.301 363.26C781.301 363.727 781.185 364.263 780.951 364.87C780.718 365.477 780.345 366.107 779.831 366.76C777.965 369.14 775.888 371.007 773.601 372.36C771.361 373.667 768.795 374.647 765.901 375.3C765.715 375.907 765.551 376.513 765.411 377.12C765.271 377.68 765.155 378.217 765.061 378.73C765.015 378.963 764.968 379.197 764.921 379.43C764.921 379.617 764.921 379.827 764.921 380.06C764.921 380.993 765.131 381.67 765.551 382.09C766.018 382.463 766.578 382.65 767.231 382.65C768.258 382.65 769.355 382.393 770.521 381.88C771.688 381.32 772.785 380.69 773.811 379.99C774.838 379.29 775.608 378.73 776.121 378.31C776.635 377.843 777.125 377.377 777.591 376.91C778.105 376.397 778.665 375.837 779.271 375.23C779.738 374.717 780.181 374.227 780.601 373.76C781.021 373.247 781.418 372.733 781.791 372.22C781.931 372.08 782.048 372.01 782.141 372.01C782.421 372.01 782.561 372.22 782.561 372.64C782.561 372.873 782.468 373.083 782.281 373.27C781.441 374.297 780.601 375.323 779.761 376.35C778.921 377.33 778.058 378.287 777.171 379.22C776.145 380.293 774.721 381.367 772.901 382.44C771.128 383.513 769.145 384.05 766.951 384.05ZM766.321 374.39C767.535 373.877 768.935 373.13 770.521 372.15C772.155 371.17 773.718 370.003 775.211 368.65C776.751 367.25 778.011 365.757 778.991 364.17C779.318 363.657 779.481 363.19 779.481 362.77C779.481 362.117 779.108 361.79 778.361 361.79C777.848 361.79 777.218 361.977 776.471 362.35C774.138 363.61 772.131 365.313 770.451 367.46C768.771 369.607 767.395 371.917 766.321 374.39ZM784.204 383.28C782.664 383.28 781.59 382.907 780.984 382.16C780.377 381.413 780.074 380.503 780.074 379.43C780.074 378.03 780.4 376.537 781.054 374.95C781.754 373.363 782.36 372.127 782.874 371.24C784.134 369.233 785.627 367.32 787.354 365.5C789.08 363.68 790.9 362.21 792.814 361.09C794.774 359.923 796.64 359.34 798.414 359.34C799.627 359.34 800.817 359.62 801.984 360.18C802.217 359.667 802.427 359.223 802.614 358.85C802.8 358.43 802.987 358.033 803.174 357.66C804.807 354.767 806.184 352.317 807.304 350.31C808.47 348.303 809.707 346.74 811.014 345.62C812.367 344.453 814.117 343.753 816.264 343.52C815.004 345.2 813.907 346.717 812.974 348.07C812.04 349.423 811.154 350.8 810.314 352.2C809.474 353.553 808.61 355.047 807.724 356.68C806.837 358.313 805.834 360.25 804.714 362.49C804.807 362.77 804.854 362.957 804.854 363.05C804.854 363.377 804.737 363.657 804.504 363.89C804.317 364.077 804.107 364.17 803.874 364.17C802.894 366.13 801.937 368.113 801.004 370.12C800.117 372.08 799.37 373.9 798.764 375.58C798.204 377.213 797.924 378.497 797.924 379.43C797.924 380.41 798.274 380.9 798.974 380.9C799.394 380.9 799.907 380.737 800.514 380.41C801.54 379.897 802.567 379.173 803.594 378.24C804.667 377.26 805.647 376.257 806.534 375.23C807.047 374.717 807.514 374.227 807.934 373.76C808.354 373.247 808.75 372.733 809.124 372.22C809.264 372.08 809.38 372.01 809.474 372.01C809.754 372.01 809.894 372.197 809.894 372.57C809.894 372.85 809.8 373.083 809.614 373.27C808.82 374.297 808.004 375.323 807.164 376.35C806.324 377.33 805.437 378.287 804.504 379.22C804.317 379.407 804.13 379.617 803.944 379.85C803.757 380.037 803.547 380.223 803.314 380.41C802.334 381.203 801.33 381.88 800.304 382.44C799.324 383 798.437 383.28 797.644 383.28C796.477 383.28 795.684 382.93 795.264 382.23C794.89 381.483 794.704 380.62 794.704 379.64C794.704 378.987 794.75 378.31 794.844 377.61C794.984 376.91 795.147 376.303 795.334 375.79C795.474 375.277 795.637 374.693 795.824 374.04C796.057 373.387 796.314 372.733 796.594 372.08C795.567 373.667 794.4 375.323 793.094 377.05C791.787 378.777 790.387 380.247 788.894 381.46C787.4 382.673 785.837 383.28 784.204 383.28ZM784.624 381.53C785.417 381.53 786.584 380.947 788.124 379.78C789.244 378.893 790.41 377.82 791.624 376.56C792.837 375.253 793.957 373.993 794.984 372.78C796.057 371.52 796.874 370.54 797.434 369.84C797.994 368.487 798.6 367.087 799.254 365.64C799.954 364.147 800.677 362.677 801.424 361.23C801.05 361.043 800.607 360.95 800.094 360.95C798.927 360.95 797.574 361.487 796.034 362.56C794.54 363.587 793.094 364.847 791.694 366.34C790.107 368.02 788.66 369.84 787.354 371.8C786.047 373.713 785.067 375.463 784.414 377.05C784.087 377.75 783.854 378.38 783.714 378.94C783.62 379.453 783.574 379.897 783.574 380.27C783.574 381.11 783.924 381.53 784.624 381.53ZM817.638 373.55C817.498 373.55 817.428 373.317 817.428 372.85C817.428 372.617 817.451 372.313 817.498 371.94C817.544 371.52 817.614 371.053 817.708 370.54C817.941 369.56 818.361 368.207 818.968 366.48C819.574 364.753 820.298 362.887 821.138 360.88C822.024 358.827 822.934 356.867 823.868 355C824.848 353.087 825.781 351.523 826.668 350.31C828.488 347.697 830.098 345.877 831.498 344.85C832.898 343.823 834.088 343.217 835.068 343.03C836.048 342.843 836.818 342.75 837.378 342.75C836.304 343.87 835.044 345.34 833.598 347.16C832.198 348.98 830.728 351.01 829.188 353.25C827.694 355.49 826.248 357.823 824.848 360.25C823.448 362.63 822.234 364.963 821.208 367.25C820.974 367.81 820.601 368.603 820.088 369.63C819.621 370.61 819.154 371.52 818.688 372.36C818.221 373.153 817.871 373.55 817.638 373.55ZM813.788 383.49C813.274 383.49 812.878 383.35 812.598 383.07C812.318 382.79 812.084 382.487 811.898 382.16C811.758 381.927 811.688 381.717 811.688 381.53C811.688 381.25 811.781 380.993 811.968 380.76C812.154 380.48 812.318 380.27 812.458 380.13C812.784 379.897 813.111 379.663 813.438 379.43C813.811 379.15 814.208 378.917 814.628 378.73C815.001 378.543 815.328 378.403 815.608 378.31C815.888 378.17 816.191 377.983 816.518 377.75C816.704 377.657 816.844 377.68 816.938 377.82C817.031 377.913 817.031 378.007 816.938 378.1C816.658 378.52 816.424 379.173 816.238 380.06C816.098 380.9 815.841 381.693 815.468 382.44C815.141 383.14 814.581 383.49 813.788 383.49Z" fill="url(#paint2_linear_616_15)"/>
<defs>
<linearGradient id="paint0_linear_616_15" x1="65.5" y1="333.422" x2="153.273" y2="-10.6967" gradientUnits="userSpaceOnUse">
<stop stop-color="#999999" stop-opacity="0.6"/>
<stop offset="0.590811" stop-color="white"/>
</linearGradient>
<linearGradient id="paint1_linear_616_15" x1="5.00836" y1="116.101" x2="84.3165" y2="66.8685" gradientUnits="userSpaceOnUse">
<stop stop-color="#999999" stop-opacity="0.6"/>
<stop offset="0.590811" stop-color="white"/>
</linearGradient>
<linearGradient id="paint2_linear_616_15" x1="652.477" y1="424.101" x2="727.736" y2="289.053" gradientUnits="userSpaceOnUse">
<stop stop-color="#999999" stop-opacity="0.6"/>
<stop offset="0.590811" stop-color="white"/>
</linearGradient>
</defs>
</svg>
