<svg width="489" height="186" viewBox="0 0 489 186" fill="none" xmlns="http://www.w3.org/2000/svg">
<path d="M5.22 161V103.49H18.99V161H5.22ZM9.315 161V149.255H45.495V161H9.315ZM13.275 137.465V126.17H44.415V137.465H13.275ZM9.27 115.1V103.49H45.09V115.1H9.27ZM50.1659 161L65.9609 129.59V132.56L50.7509 103.49H65.6909L75.8159 123.92H76.5809L86.7059 103.49H101.646L86.3909 132.56V129.59L102.186 161H86.9309L76.5809 139.085H75.8159L65.4209 161H50.1659ZM117.941 144.665V133.28H131.576C134.516 133.28 136.631 132.635 137.921 131.345C139.241 130.025 139.901 128.06 139.901 125.45V122.66C139.901 120.02 139.256 118.055 137.966 116.765C136.676 115.475 134.561 114.83 131.621 114.83H117.896V103.49H132.656C139.976 103.49 145.331 105.11 148.721 108.35C152.141 111.59 153.851 116.225 153.851 122.255V125.9C153.851 131.96 152.141 136.61 148.721 139.85C145.331 143.06 139.991 144.665 132.701 144.665H117.941ZM108.491 161V103.49H122.261V136.475L122.351 142.865V161H108.491ZM161.665 161V103.49H175.435V161H161.665ZM165.76 161V149.255H201.94V161H165.76ZM169.72 137.465V126.17H200.86V137.465H169.72ZM165.715 115.1V103.49H201.535V115.1H165.715ZM243.106 161L241.981 150.155C241.801 148.235 241.426 146.675 240.856 145.475C240.286 144.245 239.416 143.345 238.246 142.775C237.076 142.175 235.516 141.875 233.566 141.875L220.561 141.83V131.075L234.106 131.03C237.046 131.03 239.161 130.385 240.451 129.095C241.741 127.805 242.386 125.87 242.386 123.29V122.39C242.386 119.84 241.741 117.935 240.451 116.675C239.191 115.385 237.061 114.74 234.061 114.74H220.471V103.49H236.086C243.136 103.49 248.281 104.855 251.521 107.585C254.791 110.315 256.426 114.245 256.426 119.375V120.545C256.426 124.415 255.436 127.43 253.456 129.59C251.476 131.75 248.461 132.98 244.411 133.28V135.26L241.531 133.325C245.011 133.565 247.711 134.285 249.631 135.485C251.551 136.685 252.961 138.365 253.861 140.525C254.791 142.655 255.466 145.31 255.886 148.49L257.551 161H243.106ZM210.796 161V103.49H224.476V134.945L224.566 140.165V161H210.796ZM279.418 161H265.288V103.49H279.418V161ZM289.898 161V103.49H303.668V161H289.898ZM293.993 161V149.255H330.173V161H293.993ZM297.953 137.465V126.17H329.093V137.465H297.953ZM293.948 115.1V103.49H329.768V115.1H293.948ZM358.424 103.445L373.994 145.655H374.624L373.994 121.355V103.445H387.404V161H368.549L352.394 117.845H351.809L352.439 142.685V161H339.029V103.445H358.424ZM420.372 162.26C412.182 162.26 406.077 160.1 402.057 155.78C398.067 151.43 396.072 145.235 396.072 137.195V126.98C396.072 119.09 398.082 113 402.102 108.71C406.122 104.39 412.182 102.23 420.282 102.23C422.442 102.23 424.437 102.395 426.267 102.725C428.097 103.055 429.762 103.505 431.262 104.075C432.762 104.615 434.082 105.23 435.222 105.92L436.257 117.98C434.487 117.05 432.537 116.24 430.407 115.55C428.307 114.83 425.862 114.47 423.072 114.47C418.782 114.47 415.602 115.625 413.532 117.935C411.492 120.215 410.472 123.425 410.472 127.565V136.655C410.472 140.765 411.507 143.975 413.577 146.285C415.677 148.595 419.022 149.75 423.612 149.75C426.312 149.75 428.727 149.39 430.857 148.67C432.987 147.95 434.937 147.08 436.707 146.06L435.672 158.39C434.532 159.08 433.197 159.725 431.667 160.325C430.137 160.895 428.427 161.36 426.537 161.72C424.677 162.08 422.622 162.26 420.372 162.26ZM444.761 161V103.49H458.531V161H444.761ZM448.856 161V149.255H485.036V161H448.856ZM452.816 137.465V126.17H483.956V137.465H452.816ZM448.811 115.1V103.49H484.631V115.1H448.811Z" fill="url(#paint0_linear_646_54)"/>
<path d="M7.34 73.72C6.74 73.4 6.28 72.96 5.96 72.4C5.64 71.84 5.48 70.98 5.48 69.82C5.48 68.98 5.7 68.1 6.14 67.18C6.62 66.22 7.16 65.3 7.76 64.42C8.4 63.5 8.94 62.68 9.38 61.96C10.9 59.48 12.44 56.96 14 54.4C15.6 51.84 17.02 49.36 18.26 46.96C19.5 44.52 20.36 42.3 20.84 40.3C20.92 40.26 21.08 40.24 21.32 40.24C22.04 40.24 22.78 40.6 23.54 41.32C24.34 42 24.78 42.68 24.86 43.36C24.86 43.48 24.86 43.6 24.86 43.72C24.9 43.84 24.92 43.98 24.92 44.14C24.92 45.14 24.76 46.36 24.44 47.8C24.12 49.24 23.76 50.76 23.36 52.36C23 53.96 22.68 55.54 22.4 57.1C22.12 58.74 21.84 60.32 21.56 61.84C21.32 63.36 21.1 64.64 20.9 65.68C21.86 64.44 22.96 63 24.2 61.36C25.44 59.68 26.74 57.92 28.1 56.08C29.46 54.24 30.8 52.44 32.12 50.68C33.44 48.88 34.64 47.24 35.72 45.76C36.84 44.24 37.74 42.98 38.42 41.98C39.14 40.98 39.56 40.38 39.68 40.18C40.4 40.18 41.14 40.38 41.9 40.78C42.66 41.18 43.04 41.78 43.04 42.58C43.04 42.74 42.98 43.04 42.86 43.48C42.74 43.92 42.3 44.86 41.54 46.3C40.3 48.86 39 51.46 37.64 54.1C36.28 56.74 35.04 59.42 33.92 62.14C33.44 63.34 32.94 64.58 32.42 65.86C31.94 67.1 31.46 68.42 30.98 69.82C30.7 70.66 30.52 71.4 30.44 72.04C30.4 72.68 30.36 73.18 30.32 73.54C29.48 73.1 28.86 72.5 28.46 71.74C28.1 70.94 27.92 70.06 27.92 69.1C27.92 67.82 28.28 66.3 29 64.54C29.72 62.78 30.6 60.94 31.64 59.02C32.72 57.06 33.78 55.16 34.82 53.32C35.9 51.44 36.8 49.74 37.52 48.22C38.24 46.7 38.6 45.48 38.6 44.56C38.6 44.56 38.34 44.92 37.82 45.64C37.3 46.36 36.64 47.26 35.84 48.34C35.04 49.42 34.22 50.54 33.38 51.7C32.54 52.86 31.78 53.88 31.1 54.76C30.46 55.64 30.02 56.24 29.78 56.56C28.06 58.92 26.46 61.08 24.98 63.04C23.54 64.96 22.44 66.64 21.68 68.08C21.28 68.92 21 69.68 20.84 70.36C20.72 71 20.66 71.58 20.66 72.1C19.66 72.1 18.98 71.66 18.62 70.78C18.26 69.9 18.08 68.9 18.08 67.78C18.08 67.1 18.12 66.42 18.2 65.74C18.28 65.02 18.36 64.4 18.44 63.88C18.72 62.16 19.08 60.2 19.52 58C19.96 55.76 20.4 53.56 20.84 51.4C21.32 49.2 21.68 47.34 21.92 45.82C21.56 46.86 21.06 48.02 20.42 49.3C19.78 50.54 19.1 51.8 18.38 53.08C17.7 54.32 17.04 55.46 16.4 56.5C15.76 57.54 15.26 58.34 14.9 58.9C14.14 60.02 13.34 61.32 12.5 62.8C11.7 64.24 10.94 65.66 10.22 67.06C9.46 68.5 8.8 69.84 8.24 71.08C7.72 72.28 7.42 73.16 7.34 73.72ZM34.3883 92.8C33.2683 92.8 32.4083 92.5 31.8083 91.9C31.1683 91.3 30.8483 90.44 30.8483 89.32C30.8483 87.72 31.3083 86.2 32.2283 84.76C33.1483 83.32 34.3283 81.98 35.7683 80.74C37.1683 79.54 38.6283 78.44 40.1483 77.44C41.6683 76.44 43.0483 75.58 44.2883 74.86C45.5283 74.14 46.4083 73.58 46.9283 73.18C47.9283 71.38 48.8683 69.54 49.7483 67.66C50.6283 65.74 51.4083 63.84 52.0883 61.96C51.0483 63.8 49.9083 65.56 48.6683 67.24C47.4683 68.92 46.2483 70.3 45.0083 71.38C43.8083 72.46 42.6483 73 41.5283 73C40.3683 73 39.5883 72.62 39.1883 71.86C38.7883 71.06 38.5883 70.2 38.5883 69.28C38.5883 68.56 38.6483 67.86 38.7683 67.18C38.9283 66.5 39.0683 66 39.1883 65.68C39.5483 64.64 40.0083 63.5 40.5683 62.26C41.1283 60.98 41.6883 59.74 42.2483 58.54C42.8483 57.3 43.3683 56.22 43.8083 55.3C44.1283 54.62 44.7283 54.04 45.6083 53.56C46.4883 53.04 47.2083 52.78 47.7683 52.78C48.3683 52.78 48.6683 53 48.6683 53.44C48.6683 53.76 48.4883 54.22 48.1283 54.82C47.8083 55.38 47.3283 56.26 46.6883 57.46C46.0483 58.66 45.3483 59.98 44.5883 61.42C43.8683 62.86 43.2083 64.24 42.6083 65.56C41.8883 67.12 41.5283 68.52 41.5283 69.76C41.5283 70.28 41.6083 70.7 41.7683 71.02C41.9283 71.34 42.1883 71.5 42.5483 71.5C42.8683 71.5 43.2883 71.32 43.8083 70.96C44.3283 70.6 44.9283 70 45.6083 69.16C45.9683 68.76 46.5083 68.08 47.2283 67.12C47.9883 66.16 48.8083 65.04 49.6883 63.76C50.5683 62.44 51.4083 61.06 52.2083 59.62C53.0083 58.14 53.6483 56.72 54.1283 55.36L54.4883 54.04C54.8083 53.76 55.1283 53.62 55.4483 53.62C55.8883 53.62 56.2683 53.82 56.5883 54.22C56.9083 54.62 57.0883 54.86 57.1283 54.94C56.4883 57.26 55.6883 59.74 54.7283 62.38C53.7683 65.02 52.5283 67.98 51.0083 71.26C52.5283 70.3 53.8083 69.38 54.8483 68.5C55.8883 67.58 56.6483 66.86 57.1283 66.34C57.5283 65.9 57.9083 65.46 58.2683 65.02C58.6683 64.58 59.0283 64.14 59.3483 63.7C59.4683 63.58 59.5683 63.52 59.6483 63.52C59.8883 63.52 60.0083 63.7 60.0083 64.06C60.0083 64.3 59.9283 64.5 59.7683 64.66C59.3283 65.18 58.8883 65.72 58.4483 66.28C58.0483 66.8 57.6083 67.34 57.1283 67.9C56.3283 68.78 55.2483 69.74 53.8883 70.78C52.5683 71.78 51.2683 72.64 49.9883 73.36C48.9883 75.72 47.9283 78.04 46.8083 80.32C45.7283 82.64 44.5683 84.74 43.3283 86.62C42.0883 88.5 40.7283 90 39.2483 91.12C37.7683 92.24 36.1483 92.8 34.3883 92.8ZM34.1483 91.54C35.1883 91.54 36.2283 91.12 37.2683 90.28C38.2683 89.44 39.2283 88.34 40.1483 86.98C41.0683 85.66 41.9283 84.24 42.7283 82.72C43.5283 81.2 44.2283 79.74 44.8283 78.34C45.4683 76.94 45.9883 75.78 46.3883 74.86C45.7083 75.3 44.7883 75.92 43.6283 76.72C42.4683 77.56 41.2283 78.5 39.9083 79.54C38.5883 80.58 37.3483 81.68 36.1883 82.84C34.9883 84 34.0283 85.14 33.3083 86.26C32.5483 87.42 32.1683 88.48 32.1683 89.44C32.1683 89.92 32.3083 90.38 32.5883 90.82C32.8683 91.3 33.3883 91.54 34.1483 91.54Z" fill="url(#paint1_linear_646_54)"/>
<defs>
<linearGradient id="paint0_linear_646_54" x1="38.267" y1="189.101" x2="73.9935" y2="19.6452" gradientUnits="userSpaceOnUse">
<stop stop-color="#999999" stop-opacity="0.6"/>
<stop offset="0.590811" stop-color="white"/>
</linearGradient>
<linearGradient id="paint1_linear_646_54" x1="9.14755" y1="116.101" x2="81.1148" y2="79.1042" gradientUnits="userSpaceOnUse">
<stop stop-color="#999999" stop-opacity="0.6"/>
<stop offset="0.590811" stop-color="white"/>
</linearGradient>
</defs>
</svg>
